# xmcd CD database file
#
# Track frame offsets:
#	150
#	14873
#	28324
#	45343
#	59108
#	69658
#	93136
#	110990
#	119169
#
# Disc length: 1784 seconds
#
# Revision: 1
# Processed by: cddbd v1.5.2PL0 Copyright (c) Steve Scherf et al.
# Submitted via: CDex 1.76
#
DISCID=8c06f609
DTITLE=Canyon - Canyon 1
DYEAR=1900
DGENRE=Country
TTITLE0=Northern Bound
TTITLE1=Weekend Dad
TTITLE2=Not Cool Anymore
TTITLE3=Though Eternity
TTITLE4=Friday Nights
TTITLE5=Its Not Over
TTITLE6=Sarah's Heart
TTITLE7=Jammin Shannon
TTITLE8=Hard To Live
EXTD=
EXTT0=
EXTT1=
EXTT2=
EXTT3=
EXTT4=
EXTT5=
EXTT6=
EXTT7=
EXTT8=
PLAYORDER=
